<?xml version="1.0" encoding="UTF-8"?>
<svg xmlns="http://www.w3.org/2000/svg" xmlns:xlink="http://www.w3.org/1999/xlink"
     width="2400" height="1900" viewBox="-1236.296506905277 -1900.0 2400 1900">
<defs>
</defs>
<rect x="-1236.296506905277" y="-1900.0" width="158.55590864060358" height="1900.0" fill="red" stroke="black" stroke-width="0.1" />
<rect x="-1077.7405982646735" y="-682.298909685423" width="12.788438660036615" height="682.298909685423" fill="red" stroke="black" stroke-width="0.1" />
<rect x="-1077.7405982646735" y="-1900.0" width="3.3423742305903748" height="1217.701090314577" fill="red" stroke="black" stroke-width="0.1" />
<rect x="-1074.3982240340831" y="-701.9969031754171" width="5.359330371970996" height="19.69799348999403" fill="green" stroke="black" stroke-width="0.1" />
<rect x="-1074.3982240340831" y="-1900.0" width="5.359330371970996" height="1198.0030968245828" fill="red" stroke="black" stroke-width="0.1" />
<rect x="-1069.038893662112" y="-1900.0" width="4.086734057475245" height="1217.701090314577" fill="red" stroke="black" stroke-width="0.1" />
<rect x="-1064.9521596046368" y="-1900.0" width="28.314675664105547" height="1900.0" fill="red" stroke="black" stroke-width="0.1" />
<rect x="-1036.6374839405314" y="-232.05278936873643" width="55.8899731244798" height="232.05278936873643" fill="red" stroke="black" stroke-width="0.1" />
<rect x="-1036.6374839405314" y="-1900.0" width="51.09458643881982" height="1667.9472106312635" fill="red" stroke="black" stroke-width="0.1" />
<rect x="-985.5428975017115" y="-1900.0" width="0.6458988964895637" height="1667.9472106312635" fill="red" stroke="black" stroke-width="0.1" />
<rect x="-984.8969986052219" y="-405.59058633510347" width="4.149487789170426" height="173.537796966367" fill="green" stroke="black" stroke-width="0.1" />
<rect x="-984.8969986052219" y="-1900.0" width="4.149487789170426" height="1494.4094136648964" fill="red" stroke="black" stroke-width="0.1" />
<rect x="-980.7475108160515" y="-1900.0" width="92.13240609695461" height="1900.0" fill="red" stroke="black" stroke-width="0.1" />
<rect x="-888.6151047190968" y="-475.3397225031135" width="100.56346559242928" height="475.3397225031135" fill="red" stroke="black" stroke-width="0.1" />
<rect x="-888.6151047190968" y="-662.1227005911609" width="19.78121460282268" height="186.78297808804743" fill="red" stroke="black" stroke-width="0.1" />
<rect x="-868.8338901162742" y="-552.5013516850591" width="7.533159748310419" height="77.16162918194567" fill="green" stroke="black" stroke-width="0.1" />
<rect x="-868.8338901162742" y="-662.1227005911608" width="7.533159748310419" height="109.62134890610176" fill="red" stroke="black" stroke-width="0.1" />
<rect x="-888.6151047190968" y="-1900.0" width="16.573542924717533" height="1237.877299408839" fill="red" stroke="black" stroke-width="0.1" />
<rect x="-872.0415617943794" y="-673.0410069086529" width="10.740831426415566" height="10.918306317491993" fill="green" stroke="black" stroke-width="0.1" />
<rect x="-872.0415617943794" y="-1900.0" width="10.740831426415566" height="1226.958993091347" fill="red" stroke="black" stroke-width="0.1" />
<rect x="-861.3007303679639" y="-1900.0" width="73.24909124129618" height="1424.6602774968865" fill="red" stroke="black" stroke-width="0.1" />
<rect x="-788.0516391266676" y="-1900.0" width="81.78545296334033" height="1900.0" fill="red" stroke="black" stroke-width="0.1" />
<rect x="-706.2661861633273" y="-1900.0" width="195.92108620216698" height="1900.0" fill="red" stroke="black" stroke-width="0.1" />
<rect x="-510.3450999611603" y="-1900.0" width="65.93358481652578" height="1900.0" fill="red" stroke="black" stroke-width="0.1" />
<rect x="-444.41151514463456" y="-1201.6224198600703" width="151.4767439647386" height="1201.6224198600703" fill="red" stroke="black" stroke-width="0.1" />
<rect x="-444.41151514463456" y="-1251.8859991804054" width="151.4767439647386" height="50.263579320335126" fill="green" stroke="black" stroke-width="0.1" />
<rect x="-444.41151514463456" y="-1321.9418278663118" width="151.4767439647386" height="70.05582868590636" fill="red" stroke="black" stroke-width="0.1" />
<rect x="-444.41151514463456" y="-1900.0" width="151.4767439647386" height="578.0581721336882" fill="red" stroke="black" stroke-width="0.1" />
<rect x="-292.93477117989596" y="-1598.9895970294162" width="120.5284481802563" height="1598.9895970294162" fill="red" stroke="black" stroke-width="0.1" />
<rect x="-292.93477117989596" y="-1900.0" width="74.95210158679335" height="301.01040297058375" fill="red" stroke="black" stroke-width="0.1" />
<rect x="-217.98266959310263" y="-1638.1541268159465" width="4.812851758964226" height="39.16452978653034" fill="green" stroke="black" stroke-width="0.1" />
<rect x="-217.98266959310263" y="-1899.9999999999998" width="4.812851758964226" height="261.84587318405335" fill="red" stroke="black" stroke-width="0.1" />
<rect x="-213.16981783413837" y="-1900.0" width="21.06763194108662" height="301.01040297058375" fill="red" stroke="black" stroke-width="0.1" />
<rect x="-192.10218589305177" y="-1666.8458744840543" width="19.695862893412116" height="67.85627745463798" fill="green" stroke="black" stroke-width="0.1" />
<rect x="-192.10218589305177" y="-1899.9999999999998" width="19.695862893412116" height="233.15412551594574" fill="red" stroke="black" stroke-width="0.1" />
<rect x="-172.40632299963963" y="-1666.845874484054" width="93.24003172684928" height="1666.845874484054" fill="green" stroke="black" stroke-width="0.1" />
<rect x="-79.16629127279035" y="-1666.845874484054" width="79.16629127279035" height="1666.845874484054" fill="red" stroke="black" stroke-width="0.1" />
<rect x="-172.40632299963963" y="-1899.9999999999998" width="172.40632299963963" height="233.15412551594574" fill="red" stroke="black" stroke-width="0.1" />
<rect x="0.0" y="-1697.4438145396414" width="41.44852651928914" height="1697.4438145396414" fill="green" stroke="black" stroke-width="0.1" />
<rect x="41.44852651928914" y="-1677.2790644182512" width="42.85985473264925" height="1677.2790644182512" fill="green" stroke="black" stroke-width="0.1" />
<rect x="41.44852651928914" y="-1697.4438145396414" width="4.732391461549748" height="20.16475012139013" fill="green" stroke="black" stroke-width="0.1" />
<rect x="46.180917980838885" y="-1697.4438145396414" width="38.127463271099494" height="20.16475012139013" fill="red" stroke="black" stroke-width="0.1" />
<rect x="0.0" y="-1900.0" width="84.30838125193839" height="202.55618546035853" fill="red" stroke="black" stroke-width="0.1" />
<rect x="84.30838125193839" y="-1677.2790644182512" width="42.278508015034035" height="1677.2790644182512" fill="red" stroke="black" stroke-width="0.1" />
<rect x="126.5868892669724" y="-1661.7338353249388" width="25.25207646908813" height="1661.7338353249388" fill="red" stroke="black" stroke-width="0.1" />
<rect x="126.5868892669724" y="-1677.2790644182512" width="25.25207646908813" height="15.54522909331249" fill="green" stroke="black" stroke-width="0.1" />
<rect x="84.30838125193839" y="-1680.7480904025467" width="67.53058448412216" height="3.469025984295414" fill="red" stroke="black" stroke-width="0.1" />
<rect x="84.30838125193839" y="-1900.0" width="67.53058448412216" height="219.25190959745325" fill="red" stroke="black" stroke-width="0.1" />
<rect x="151.83896573606054" y="-1900.0" width="18.96585640005694" height="1900.0" fill="red" stroke="black" stroke-width="0.1" />
<rect x="170.80482213611748" y="-1544.9092770945467" width="120.30629700259082" height="1544.9092770945467" fill="green" stroke="black" stroke-width="0.1" />
<rect x="170.80482213611748" y="-1617.4135081898294" width="50.79481329710203" height="72.50423109528258" fill="green" stroke="black" stroke-width="0.1" />
<rect x="170.80482213611748" y="-1900.0" width="50.79481329710203" height="282.58649181017074" fill="red" stroke="black" stroke-width="0.1" />
<rect x="221.5996354332195" y="-1900.0" width="22.238871263954703" height="355.09072290545333" fill="red" stroke="black" stroke-width="0.1" />
<rect x="243.83850669717424" y="-1900.0" width="42.79017302754628" height="355.09072290545333" fill="red" stroke="black" stroke-width="0.1" />
<rect x="286.6286797247205" y="-1607.6473940827466" width="4.4824394139878025" height="62.73811698819977" fill="green" stroke="black" stroke-width="0.1" />
<rect x="286.6286797247205" y="-1900.0" width="4.4824394139878025" height="292.3526059172535" fill="red" stroke="black" stroke-width="0.1" />
<rect x="291.11111913870826" y="-1533.2769943887745" width="68.50741558596015" height="1533.2769943887745" fill="green" stroke="black" stroke-width="0.1" />
<rect x="291.11111913870826" y="-1587.3780159835474" width="19.21584242485745" height="54.1010215947728" fill="green" stroke="black" stroke-width="0.1" />
<rect x="310.32696156356576" y="-1571.5169107442682" width="4.029325144841026" height="38.239916355493804" fill="green" stroke="black" stroke-width="0.1" />
<rect x="310.32696156356576" y="-1587.3780159835471" width="0.7169599759485762" height="15.861105239278992" fill="green" stroke="black" stroke-width="0.1" />
<rect x="311.0439215395143" y="-1587.3780159835471" width="3.3123651688924505" height="15.861105239278992" fill="red" stroke="black" stroke-width="0.1" />
<rect x="291.11111913870826" y="-1900.0" width="23.245167569698477" height="312.6219840164527" fill="red" stroke="black" stroke-width="0.1" />
<rect x="314.35628670840674" y="-1561.901665662664" width="37.32694842375191" height="28.62467127388965" fill="red" stroke="black" stroke-width="0.1" />
<rect x="351.68323513215864" y="-1561.901665662664" width="7.935299592509759" height="28.62467127388965" fill="green" stroke="black" stroke-width="0.1" />
<rect x="314.35628670840674" y="-1571.5169107442682" width="6.166015880405805" height="9.615245081604158" fill="green" stroke="black" stroke-width="0.1" />
<rect x="314.35628670840674" y="-1900.0" width="6.166015880405805" height="328.4830892557317" fill="red" stroke="black" stroke-width="0.1" />
<rect x="320.5223025888126" y="-1900.0" width="39.09623213585586" height="338.0983343373358" fill="red" stroke="black" stroke-width="0.1" />
<rect x="359.61853472466845" y="-1421.4798855350043" width="55.03925223982088" height="1421.4798855350043" fill="green" stroke="black" stroke-width="0.1" />
<rect x="359.61853472466845" y="-1497.2715138942372" width="32.84275095417734" height="75.79162835923273" fill="green" stroke="black" stroke-width="0.1" />
<rect x="392.4612856788458" y="-1490.8645546827427" width="22.19650128564354" height="69.38466914773831" fill="green" stroke="black" stroke-width="0.1" />
<rect x="392.4612856788458" y="-1497.2715138942372" width="9.421527159270392" height="6.406959211494421" fill="green" stroke="black" stroke-width="0.1" />
<rect x="401.8828128381162" y="-1497.2715138942372" width="12.774974126373145" height="6.406959211494421" fill="red" stroke="black" stroke-width="0.1" />
<rect x="359.61853472466845" y="-1520.3751134905797" width="15.779522416654089" height="23.103599596342637" fill="red" stroke="black" stroke-width="0.1" />
<rect x="359.61853472466845" y="-1533.2769943887745" width="15.779522416654089" height="12.90188089819493" fill="green" stroke="black" stroke-width="0.1" />
<rect x="375.39805714132257" y="-1533.2769943887745" width="3.336126169183236" height="36.005480494537565" fill="green" stroke="black" stroke-width="0.1" />
<rect x="359.61853472466845" y="-1561.901665662664" width="11.470297364536354" height="28.62467127388965" fill="green" stroke="black" stroke-width="0.1" />
<rect x="359.61853472466845" y="-1900.0" width="11.470297364536354" height="338.0983343373358" fill="red" stroke="black" stroke-width="0.1" />
<rect x="371.0888320892048" y="-1900.0" width="7.645351221300971" height="366.7230056112255" fill="red" stroke="black" stroke-width="0.1" />
<rect x="378.7341833105058" y="-1533.2769943887745" width="3.4181370035176495" height="36.005480494537565" fill="green" stroke="black" stroke-width="0.1" />
<rect x="378.7341833105058" y="-1900.0" width="3.4181370035176495" height="366.7230056112255" fill="red" stroke="black" stroke-width="0.1" />
<rect x="382.15232031402337" y="-1900.0" width="32.505466650465905" height="402.728486105763" fill="red" stroke="black" stroke-width="0.1" />
<rect x="414.65778696448933" y="-1417.2698950714027" width="45.95173243389568" height="1417.2698950714027" fill="green" stroke="black" stroke-width="0.1" />
<rect x="414.65778696448933" y="-1478.7989497153383" width="30.40466479641259" height="61.52905464393558" fill="green" stroke="black" stroke-width="0.1" />
<rect x="445.0624517609019" y="-1478.7989497153383" width="1.5463748834703042" height="61.52905464393558" fill="green" stroke="black" stroke-width="0.1" />
<rect x="446.6088266443722" y="-1478.7989497153383" width="14.000692754012785" height="61.52905464393558" fill="red" stroke="black" stroke-width="0.1" />
<rect x="414.65778696448933" y="-1900.0" width="45.95173243389568" height="421.2010502846617" fill="red" stroke="black" stroke-width="0.1" />
<rect x="460.609519398385" y="-1339.0445760689718" width="38.45081843311833" height="1339.0445760689718" fill="green" stroke="black" stroke-width="0.1" />
<rect x="460.609519398385" y="-1374.0242303446641" width="38.45081843311833" height="34.97965427569235" fill="red" stroke="black" stroke-width="0.1" />
<rect x="460.609519398385" y="-1900.0" width="38.45081843311833" height="525.9757696553357" fill="red" stroke="black" stroke-width="0.1" />
<rect x="499.0603378315033" y="-488.3216404950412" width="189.0935983380178" height="488.3216404950412" fill="red" stroke="black" stroke-width="0.1" />
<rect x="499.0603378315033" y="-811.4253388848803" width="95.30918915840236" height="323.10369838983905" fill="red" stroke="black" stroke-width="0.1" />
<rect x="594.3695269899057" y="-811.4253388848803" width="16.4721543642232" height="323.10369838983905" fill="red" stroke="black" stroke-width="0.1" />
<rect x="610.8416813541288" y="-810.077117454011" width="77.31225481539222" height="321.75547695896984" fill="red" stroke="black" stroke-width="0.1" />
<rect x="610.8416813541288" y="-811.4253388848803" width="77.31225481539222" height="1.3482214308692464" fill="green" stroke="black" stroke-width="0.1" />
<rect x="499.0603378315033" y="-1336.6392805548667" width="49.84697372232435" height="525.2139416699864" fill="green" stroke="black" stroke-width="0.1" />
<rect x="499.0603378315033" y="-1900.0" width="14.300704091173824" height="563.3607194451333" fill="red" stroke="black" stroke-width="0.1" />
<rect x="513.3610419226771" y="-1900.0" width="1.5111994515982838" height="563.3607194451333" fill="red" stroke="black" stroke-width="0.1" />
<rect x="514.8722413742754" y="-1349.0161006407557" width="34.03507017955224" height="12.37682008588894" fill="green" stroke="black" stroke-width="0.1" />
<rect x="514.8722413742754" y="-1899.9999999999998" width="34.03507017955224" height="550.9838993592443" fill="red" stroke="black" stroke-width="0.1" />
<rect x="548.9073115538276" y="-1285.1770073069183" width="12.52195809508861" height="473.751668422038" fill="green" stroke="black" stroke-width="0.1" />
<rect x="548.9073115538276" y="-1900.0" width="12.52195809508861" height="614.8229926930818" fill="red" stroke="black" stroke-width="0.1" />
<rect x="561.4292696489163" y="-1262.8421582355988" width="16.73501153316454" height="451.41681935071864" fill="green" stroke="black" stroke-width="0.1" />
<rect x="561.4292696489163" y="-1297.369250865095" width="9.074381602445174" height="34.527092629496074" fill="red" stroke="black" stroke-width="0.1" />
<rect x="570.5036512513615" y="-1285.1770073069183" width="7.660629930719367" height="22.334849071319358" fill="green" stroke="black" stroke-width="0.1" />
<rect x="570.5036512513615" y="-1297.369250865095" width="7.660629930719367" height="12.192243558176713" fill="red" stroke="black" stroke-width="0.1" />
<rect x="561.4292696489163" y="-1900.0" width="11.25272218903169" height="602.6307491349049" fill="red" stroke="black" stroke-width="0.1" />
<rect x="572.681991837948" y="-1304.7617145718941" width="4.27266525630815" height="7.39246370679917" fill="green" stroke="black" stroke-width="0.1" />
<rect x="572.681991837948" y="-1900.0" width="4.27266525630815" height="595.2382854281059" fill="red" stroke="black" stroke-width="0.1" />
<rect x="576.9546570942562" y="-1900.0" width="1.209624087824699" height="602.6307491349049" fill="red" stroke="black" stroke-width="0.1" />
<rect x="578.1642811820808" y="-1236.5290389863694" width="32.67740017204807" height="425.1037001014891" fill="green" stroke="black" stroke-width="0.1" />
<rect x="578.1642811820808" y="-1262.8421582355988" width="31.297545704234338" height="26.31311924922955" fill="green" stroke="black" stroke-width="0.1" />
<rect x="578.1642811820808" y="-1900.0" width="31.297545704234338" height="637.1578417644012" fill="red" stroke="black" stroke-width="0.1" />
<rect x="609.4618268863152" y="-1899.9999999999998" width="1.3798544678137277" height="663.4709610136306" fill="red" stroke="black" stroke-width="0.1" />
<rect x="610.8416813541288" y="-1190.955007439593" width="42.55846457681853" height="379.52966855471254" fill="green" stroke="black" stroke-width="0.1" />
<rect x="610.8416813541288" y="-1226.866388732218" width="21.989880198587386" height="35.91138129262532" fill="green" stroke="black" stroke-width="0.1" />
<rect x="610.8416813541288" y="-1236.5290389863692" width="12.703449974866881" height="9.662650254151261" fill="green" stroke="black" stroke-width="0.1" />
<rect x="623.5451313289958" y="-1236.5290389863692" width="9.286430223720505" height="9.662650254151261" fill="red" stroke="black" stroke-width="0.1" />
<rect x="632.8315615527163" y="-1236.5290389863692" width="3.9112658588837483" height="45.57403154677659" fill="red" stroke="black" stroke-width="0.1" />
<rect x="636.7428274116" y="-1203.743880015016" width="16.657318519347395" height="12.788872575423367" fill="green" stroke="black" stroke-width="0.1" />
<rect x="636.7428274116" y="-1236.5290389863692" width="16.657318519347395" height="32.78515897135321" fill="red" stroke="black" stroke-width="0.1" />
<rect x="610.8416813541288" y="-1899.9999999999998" width="42.55846457681853" height="663.4709610136306" fill="red" stroke="black" stroke-width="0.1" />
<rect x="653.4001459309475" y="-1118.8634177707477" width="24.274694529450766" height="307.4380788858675" fill="green" stroke="black" stroke-width="0.1" />
<rect x="653.4001459309475" y="-1141.0716722940808" width="11.173700522843257" height="22.20825452333299" fill="green" stroke="black" stroke-width="0.1" />
<rect x="653.4001459309475" y="-1900.0" width="11.173700522843257" height="758.9283277059193" fill="red" stroke="black" stroke-width="0.1" />
<rect x="664.5738464537907" y="-1123.8705324486496" width="9.117189221965118" height="5.007114677901738" fill="green" stroke="black" stroke-width="0.1" />
<rect x="664.5738464537907" y="-1900.0" width="9.117189221965118" height="776.1294675513506" fill="red" stroke="black" stroke-width="0.1" />
<rect x="673.6910356757558" y="-1900.0" width="3.9838047846423885" height="781.1365822292522" fill="red" stroke="black" stroke-width="0.1" />
<rect x="677.6748404603982" y="-1094.3531181113033" width="10.479095709122943" height="282.92777922642296" fill="green" stroke="black" stroke-width="0.1" />
<rect x="677.6748404603982" y="-1102.5609291728704" width="6.975574695617451" height="8.207811061567037" fill="green" stroke="black" stroke-width="0.1" />
<rect x="677.6748404603982" y="-1900.0" width="6.975574695617451" height="797.4390708271297" fill="red" stroke="black" stroke-width="0.1" />
<rect x="684.6504151560156" y="-1900.0" width="3.503521013505491" height="805.6468818886968" fill="red" stroke="black" stroke-width="0.1" />
<rect x="688.1539361695211" y="-406.70057052444577" width="138.94325920536514" height="406.70057052444577" fill="red" stroke="black" stroke-width="0.1" />
<rect x="688.1539361695211" y="-810.0771174540109" width="87.01437499156968" height="403.3765469295652" fill="red" stroke="black" stroke-width="0.1" />
<rect x="688.1539361695211" y="-812.9387377816139" width="87.01437499156968" height="2.861620327602895" fill="green" stroke="black" stroke-width="0.1" />
<rect x="775.1683111610909" y="-810.0771174540109" width="28.78931743598861" height="403.3765469295652" fill="red" stroke="black" stroke-width="0.1" />
<rect x="775.1683111610909" y="-812.9387377816139" width="28.78931743598861" height="2.861620327602895" fill="green" stroke="black" stroke-width="0.1" />
<rect x="803.9576285970794" y="-812.9387377816139" width="23.13956677780686" height="406.23816725716813" fill="red" stroke="black" stroke-width="0.1" />
<rect x="688.1539361695211" y="-1052.1859067143291" width="29.212415726137653" height="239.2471689327151" fill="green" stroke="black" stroke-width="0.1" />
<rect x="688.1539361695211" y="-1094.353118111303" width="24.403473370193847" height="42.16721139697417" fill="green" stroke="black" stroke-width="0.1" />
<rect x="688.1539361695211" y="-1900.0" width="24.403473370193847" height="805.6468818886968" fill="red" stroke="black" stroke-width="0.1" />
<rect x="712.557409539715" y="-1899.9999999999998" width="4.808942355943806" height="847.8140932856709" fill="red" stroke="black" stroke-width="0.1" />
<rect x="717.3663518956588" y="-1052.1859067143291" width="4.3691350425033635" height="239.2471689327151" fill="green" stroke="black" stroke-width="0.1" />
<rect x="717.3663518956588" y="-1069.4615478133476" width="4.3691350425033635" height="17.275641099018685" fill="green" stroke="black" stroke-width="0.1" />
<rect x="717.3663518956588" y="-1900.0" width="4.3691350425033635" height="830.5384521866523" fill="red" stroke="black" stroke-width="0.1" />
<rect x="721.7354869381622" y="-933.4746374679528" width="33.35081545621462" height="120.53589968633892" fill="green" stroke="black" stroke-width="0.1" />
<rect x="721.7354869381622" y="-980.1079149596159" width="18.096149218399418" height="46.633277491663016" fill="green" stroke="black" stroke-width="0.1" />
<rect x="739.8316361565616" y="-954.5671909639436" width="15.254666237815204" height="21.092553495990686" fill="green" stroke="black" stroke-width="0.1" />
<rect x="739.8316361565616" y="-980.1079149596158" width="15.254666237815204" height="25.54072399567233" fill="red" stroke="black" stroke-width="0.1" />
<rect x="721.7354869381622" y="-1014.5299918381471" width="9.462441248720578" height="34.422076878531094" fill="green" stroke="black" stroke-width="0.1" />
<rect x="721.7354869381622" y="-1900.0" width="9.462441248720578" height="885.4700081618531" fill="red" stroke="black" stroke-width="0.1" />
<rect x="731.1979281868828" y="-1900.0" width="23.888374207494042" height="919.8920850403841" fill="red" stroke="black" stroke-width="0.1" />
<rect x="755.0863023943767" y="-933.4746374679528" width="21.529218138474647" height="120.53589968633892" fill="green" stroke="black" stroke-width="0.1" />
<rect x="755.0863023943767" y="-940.3527454807738" width="13.503642218779051" height="6.87810801282089" fill="green" stroke="black" stroke-width="0.1" />
<rect x="755.0863023943767" y="-1900.0" width="13.503642218779051" height="959.6472545192262" fill="red" stroke="black" stroke-width="0.1" />
<rect x="768.5899446131558" y="-1900.0" width="8.025575919695594" height="966.5253625320471" fill="red" stroke="black" stroke-width="0.1" />
<rect x="776.6155205328514" y="-903.8028233334585" width="27.342108064228004" height="90.86408555184455" fill="green" stroke="black" stroke-width="0.1" />
<rect x="803.9576285970794" y="-853.9413898468416" width="23.13956677780686" height="41.00265206522776" fill="green" stroke="black" stroke-width="0.1" />
<rect x="803.9576285970794" y="-903.8028233334584" width="10.513730573551962" height="49.8614334866168" fill="green" stroke="black" stroke-width="0.1" />
<rect x="814.4713591706314" y="-903.8028233334584" width="12.625836204254897" height="49.8614334866168" fill="red" stroke="black" stroke-width="0.1" />
<rect x="776.6155205328514" y="-911.0981130560808" width="23.21898388598714" height="7.295289722622337" fill="green" stroke="black" stroke-width="0.1" />
<rect x="776.6155205328514" y="-1900.0" width="23.21898388598714" height="988.9018869439192" fill="red" stroke="black" stroke-width="0.1" />
<rect x="799.8345044188385" y="-1900.0" width="27.26269095604772" height="996.1971766665416" fill="red" stroke="black" stroke-width="0.1" />
<rect x="827.0971953748863" y="-812.9387377816139" width="39.65886449598757" height="812.9387377816139" fill="red" stroke="black" stroke-width="0.1" />
<rect x="827.0971953748863" y="-846.3661619958126" width="5.219664225388085" height="33.42742421419873" fill="green" stroke="black" stroke-width="0.1" />
<rect x="832.3168596002744" y="-826.7350111304464" width="34.439200270599486" height="13.796273348832505" fill="red" stroke="black" stroke-width="0.1" />
<rect x="832.3168596002744" y="-846.3661619958125" width="3.6117464299489144" height="19.631150865366227" fill="green" stroke="black" stroke-width="0.1" />
<rect x="835.9286060302232" y="-837.1194364165555" width="30.827453840650573" height="10.384425286109167" fill="red" stroke="black" stroke-width="0.1" />
<rect x="835.9286060302232" y="-846.3661619958126" width="2.638728636955458" height="9.24672557925706" fill="green" stroke="black" stroke-width="0.1" />
<rect x="838.5673346671788" y="-846.3661619958126" width="28.188725203695114" height="9.24672557925706" fill="red" stroke="black" stroke-width="0.1" />
<rect x="827.0971953748863" y="-851.8604848664278" width="4.954617901027539" height="5.49432287061519" fill="green" stroke="black" stroke-width="0.1" />
<rect x="827.0971953748863" y="-1900.0000000000002" width="4.954617901027539" height="1048.1395151335723" fill="red" stroke="black" stroke-width="0.1" />
<rect x="832.0518132759138" y="-1900.0" width="34.70424659496003" height="1053.6338380041873" fill="red" stroke="black" stroke-width="0.1" />
<rect x="866.7560598708739" y="-1900.0" width="28.027523078571786" height="1900.0" fill="red" stroke="black" stroke-width="0.1" />
<rect x="894.7835829494455" y="-852.5265090567356" width="61.15565571617866" height="852.5265090567356" fill="red" stroke="black" stroke-width="0.1" />
<rect x="894.7835829494455" y="-954.1265207367544" width="41.64148425653186" height="101.60001168001882" fill="red" stroke="black" stroke-width="0.1" />
<rect x="936.4250672059775" y="-918.1990791902236" width="11.324708474912823" height="65.67257013348805" fill="red" stroke="black" stroke-width="0.1" />
<rect x="936.4250672059775" y="-954.1265207367544" width="11.324708474912823" height="35.92744154653076" fill="green" stroke="black" stroke-width="0.1" />
<rect x="894.7835829494455" y="-1900.0" width="52.96619273144468" height="945.8734792632457" fill="red" stroke="black" stroke-width="0.1" />
<rect x="947.7497756808904" y="-918.1990791902236" width="8.189462984733977" height="65.67257013348805" fill="red" stroke="black" stroke-width="0.1" />
<rect x="947.7497756808904" y="-923.9430087581268" width="8.189462984733977" height="5.74392956790318" fill="green" stroke="black" stroke-width="0.1" />
<rect x="947.7497756808904" y="-1900.0" width="8.189462984733977" height="976.0569912418733" fill="red" stroke="black" stroke-width="0.1" />
<rect x="955.9392386656243" y="-852.5265090567356" width="119.45736107872155" height="852.5265090567356" fill="red" stroke="black" stroke-width="0.1" />
<rect x="955.9392386656243" y="-918.1990791902236" width="48.088488798819576" height="65.67257013348805" fill="red" stroke="black" stroke-width="0.1" />
<rect x="1004.0277274644438" y="-887.4874825915081" width="71.36887227990199" height="34.96097353477255" fill="red" stroke="black" stroke-width="0.1" />
<rect x="1004.0277274644438" y="-918.1990791902234" width="5.114224353507045" height="30.711596598715502" fill="green" stroke="black" stroke-width="0.1" />
<rect x="1009.1419518179509" y="-918.1990791902234" width="66.25464792639494" height="30.711596598715502" fill="red" stroke="black" stroke-width="0.1" />
<rect x="955.9392386656243" y="-1011.7896760534405" width="119.45736107872155" height="93.59059686321692" fill="red" stroke="black" stroke-width="0.1" />
<rect x="955.9392386656243" y="-1900.0" width="119.45736107872155" height="888.2103239465596" fill="red" stroke="black" stroke-width="0.1" />
<rect x="1075.3965997443458" y="-1900.0" width="88.30689335037692" height="1900.0" fill="red" stroke="black" stroke-width="0.1" />
<path d="M-1147.9896135549002,-0.0 L-1147.9896135549002,-2025.5618546035853" stroke="black" stroke-width="0.25" />
<path d="M-1059.6827202045233,-0.0 L-1059.6827202045233,-2025.5618546035853" stroke="black" stroke-width="0.25" />
<path d="M-971.3758268541463,-0.0 L-971.3758268541463,-2025.5618546035853" stroke="black" stroke-width="0.25" />
<path d="M-883.0689335037692,-0.0 L-883.0689335037692,-2025.5618546035853" stroke="black" stroke-width="0.25" />
<path d="M-794.7620401533924,-0.0 L-794.7620401533924,-2025.5618546035853" stroke="black" stroke-width="0.25" />
<path d="M-706.4551468030154,-0.0 L-706.4551468030154,-2025.5618546035853" stroke="black" stroke-width="0.25" />
<path d="M-618.1482534526385,-0.0 L-618.1482534526385,-2025.5618546035853" stroke="black" stroke-width="0.25" />
<path d="M-529.8413601022617,-0.0 L-529.8413601022617,-2025.5618546035853" stroke="black" stroke-width="0.25" />
<path d="M-441.5344667518846,-0.0 L-441.5344667518846,-2025.5618546035853" stroke="black" stroke-width="0.25" />
<path d="M-353.2275734015077,-0.0 L-353.2275734015077,-2025.5618546035853" stroke="black" stroke-width="0.25" />
<path d="M-264.92068005113083,-0.0 L-264.92068005113083,-2025.5618546035853" stroke="black" stroke-width="0.25" />
<path d="M-176.61378670075385,-0.0 L-176.61378670075385,-2025.5618546035853" stroke="black" stroke-width="0.25" />
<path d="M-88.30689335037692,-0.0 L-88.30689335037692,-2025.5618546035853" stroke="black" stroke-width="0.25" />
<path d="M0.0,-0.0 L0.0,-2025.5618546035853" stroke="black" stroke-width="0.25" />
<path d="M88.30689335037692,-0.0 L88.30689335037692,-2025.5618546035853" stroke="black" stroke-width="0.25" />
<path d="M176.61378670075385,-0.0 L176.61378670075385,-2025.5618546035853" stroke="black" stroke-width="0.25" />
<path d="M264.92068005113083,-0.0 L264.92068005113083,-2025.5618546035853" stroke="black" stroke-width="0.25" />
<path d="M353.2275734015077,-0.0 L353.2275734015077,-2025.5618546035853" stroke="black" stroke-width="0.25" />
<path d="M441.5344667518846,-0.0 L441.5344667518846,-2025.5618546035853" stroke="black" stroke-width="0.25" />
<path d="M529.8413601022617,-0.0 L529.8413601022617,-2025.5618546035853" stroke="black" stroke-width="0.25" />
<path d="M618.1482534526385,-0.0 L618.1482534526385,-2025.5618546035853" stroke="black" stroke-width="0.25" />
<path d="M706.4551468030154,-0.0 L706.4551468030154,-2025.5618546035853" stroke="black" stroke-width="0.25" />
<path d="M794.7620401533924,-0.0 L794.7620401533924,-2025.5618546035853" stroke="black" stroke-width="0.25" />
<path d="M883.0689335037692,-0.0 L883.0689335037692,-2025.5618546035853" stroke="black" stroke-width="0.25" />
<path d="M971.3758268541463,-0.0 L971.3758268541463,-2025.5618546035853" stroke="black" stroke-width="0.25" />
<path d="M1059.6827202045233,-0.0 L1059.6827202045233,-2025.5618546035853" stroke="black" stroke-width="0.25" />
<path d="M-1236.296506905277,-202.55618546035853 L1236.296506905277,-202.55618546035853" stroke="black" stroke-width="0.25" />
<path d="M-1236.296506905277,-405.11237092071707 L1236.296506905277,-405.11237092071707" stroke="black" stroke-width="0.25" />
<path d="M-1236.296506905277,-607.6685563810756 L1236.296506905277,-607.6685563810756" stroke="black" stroke-width="0.25" />
<path d="M-1236.296506905277,-810.2247418414341 L1236.296506905277,-810.2247418414341" stroke="black" stroke-width="0.25" />
<path d="M-1236.296506905277,-1012.7809273017926 L1236.296506905277,-1012.7809273017926" stroke="black" stroke-width="0.25" />
<path d="M-1236.296506905277,-1215.3371127621513 L1236.296506905277,-1215.3371127621513" stroke="black" stroke-width="0.25" />
<path d="M-1236.296506905277,-1417.8932982225099 L1236.296506905277,-1417.8932982225099" stroke="black" stroke-width="0.25" />
<path d="M-1236.296506905277,-1620.4494836828683 L1236.296506905277,-1620.4494836828683" stroke="black" stroke-width="0.25" />
<path d="M-1236.296506905277,-0.0 L1236.296506905277,-0.0" stroke="black" stroke-width="2" />
<path d="M0.0,-0.0 L0.0,-2025.5618546035853" stroke="black" stroke-width="2" />
</svg>